<svg width="1314" height="354" viewBox="0 0 1314 354" fill="none" xmlns="http://www.w3.org/2000/svg">
<path d="M1.70896 201.394C1.33618 198.971 3.2109 196.786 5.66244 196.786H75.9211C78.3336 196.786 80.1971 198.906 79.8882 201.298L60.6215 350.512C60.364 352.507 58.6656 354 56.6545 354H28.6184C26.6442 354 24.9652 352.56 24.665 350.608L1.70896 201.394Z" fill="#FFD7AF"/>
<circle cx="40.7352" cy="168.28" r="34.2802" fill="#FFD7AF" stroke="white" stroke-width="4"/>
<path d="M125.042 201.394C124.67 198.971 126.544 196.786 128.996 196.786H199.255C201.667 196.786 203.531 198.906 203.222 201.298L183.955 350.512C183.698 352.507 181.999 354 179.988 354H151.952C149.978 354 148.299 352.56 147.998 350.608L125.042 201.394Z" fill="#FFD7AF"/>
<circle cx="164.069" cy="168.28" r="34.2802" fill="#FFD7AF" stroke="white" stroke-width="4"/>
<path d="M248.375 201.394C248.003 198.971 249.877 196.786 252.329 196.786H322.588C325 196.786 326.864 198.906 326.555 201.298L307.288 350.512C307.031 352.507 305.332 354 303.321 354H275.285C273.311 354 271.632 352.56 271.331 350.608L248.375 201.394Z" fill="#FFD7AF"/>
<circle cx="287.402" cy="168.28" r="34.2802" fill="#FFD7AF" stroke="white" stroke-width="4"/>
<path d="M371.709 201.394C371.336 198.971 373.211 196.786 375.662 196.786H445.921C448.334 196.786 450.197 198.906 449.888 201.298L430.622 350.512C430.364 352.507 428.666 354 426.654 354H398.618C396.644 354 394.965 352.56 394.665 350.608L371.709 201.394Z" fill="#FFD7AF"/>
<circle cx="410.735" cy="168.28" r="34.2802" fill="#FFD7AF" stroke="white" stroke-width="4"/>
<path d="M495.042 201.394C494.67 198.971 496.544 196.786 498.996 196.786H569.255C571.667 196.786 573.531 198.906 573.222 201.298L553.955 350.512C553.698 352.507 551.999 354 549.988 354H521.952C519.978 354 518.299 352.56 517.998 350.608L495.042 201.394Z" fill="#FFD7AF"/>
<circle cx="534.069" cy="168.28" r="34.2802" fill="#FFD7AF" stroke="white" stroke-width="4"/>
<path d="M618.375 201.394C618.003 198.971 619.877 196.786 622.329 196.786H692.588C695 196.786 696.864 198.906 696.555 201.298L677.288 350.512C677.031 352.507 675.332 354 673.321 354H645.285C643.311 354 641.632 352.56 641.331 350.608L618.375 201.394Z" fill="#FFD7AF"/>
<circle cx="657.402" cy="168.28" r="34.2802" fill="#FFD7AF" stroke="white" stroke-width="4"/>
<path d="M741.709 201.394C741.336 198.971 743.211 196.786 745.662 196.786H815.921C818.334 196.786 820.197 198.906 819.888 201.298L800.622 350.512C800.364 352.507 798.666 354 796.654 354H768.618C766.644 354 764.965 352.56 764.665 350.608L741.709 201.394Z" fill="#FFD7AF"/>
<circle cx="780.735" cy="168.28" r="34.2802" fill="#FFD7AF" stroke="white" stroke-width="4"/>
<path d="M865.042 201.394C864.67 198.971 866.544 196.786 868.996 196.786H939.255C941.667 196.786 943.531 198.906 943.222 201.298L923.955 350.512C923.698 352.507 921.999 354 919.988 354H891.952C889.978 354 888.299 352.56 887.998 350.608L865.042 201.394Z" fill="#FFD7AF"/>
<circle cx="904.069" cy="168.28" r="34.2802" fill="#FFD7AF" stroke="white" stroke-width="4"/>
<path d="M988.375 201.394C988.003 198.971 989.877 196.786 992.329 196.786H1062.59C1065 196.786 1066.86 198.906 1066.55 201.298L1047.29 350.512C1047.03 352.507 1045.33 354 1043.32 354H1015.28C1013.31 354 1011.63 352.56 1011.33 350.608L988.375 201.394Z" fill="#FFD7AF"/>
<circle cx="1027.4" cy="168.28" r="34.2802" fill="#FFD7AF" stroke="white" stroke-width="4"/>
<path d="M1111.71 201.394C1111.34 198.971 1113.21 196.786 1115.66 196.786H1185.92C1188.33 196.786 1190.2 198.906 1189.89 201.298L1170.62 350.512C1170.36 352.507 1168.67 354 1166.65 354H1138.62C1136.64 354 1134.97 352.56 1134.66 350.608L1111.71 201.394Z" fill="#FFD7AF"/>
<circle cx="1150.74" cy="168.28" r="34.2802" fill="#FFD7AF" stroke="white" stroke-width="4"/>
<path d="M1235.04 201.394C1234.67 198.971 1236.54 196.786 1239 196.786H1309.25C1311.67 196.786 1313.53 198.906 1313.22 201.298L1293.96 350.512C1293.7 352.507 1292 354 1289.99 354H1261.95C1259.98 354 1258.3 352.56 1258 350.608L1235.04 201.394Z" fill="#FFD7AF"/>
<circle cx="1274.07" cy="168.28" r="34.2802" fill="#FFD7AF" stroke="white" stroke-width="4"/>
<path d="M1142.14 7.125V30H1139.25V10.7344L1133.42 12.8594V10.25L1141.69 7.125H1142.14ZM1164.92 16.8125V20.2812C1164.92 22.1458 1164.76 23.7188 1164.42 25C1164.09 26.2812 1163.61 27.3125 1162.98 28.0938C1162.36 28.875 1161.6 29.4427 1160.72 29.7969C1159.84 30.1406 1158.85 30.3125 1157.75 30.3125C1156.88 30.3125 1156.07 30.2031 1155.33 29.9844C1154.59 29.7656 1153.92 29.4167 1153.33 28.9375C1152.74 28.4479 1152.24 27.8125 1151.83 27.0312C1151.41 26.25 1151.09 25.3021 1150.88 24.1875C1150.66 23.0729 1150.55 21.7708 1150.55 20.2812V16.8125C1150.55 14.9479 1150.71 13.3854 1151.05 12.125C1151.39 10.8646 1151.88 9.85417 1152.5 9.09375C1153.12 8.32292 1153.88 7.77083 1154.75 7.4375C1155.64 7.10417 1156.62 6.9375 1157.72 6.9375C1158.6 6.9375 1159.42 7.04688 1160.16 7.26562C1160.91 7.47396 1161.57 7.8125 1162.16 8.28125C1162.74 8.73958 1163.23 9.35417 1163.64 10.125C1164.06 10.8854 1164.38 11.8177 1164.59 12.9219C1164.81 14.026 1164.92 15.3229 1164.92 16.8125ZM1162.02 20.75V16.3281C1162.02 15.3073 1161.95 14.4115 1161.83 13.6406C1161.71 12.8594 1161.54 12.1927 1161.31 11.6406C1161.08 11.0885 1160.79 10.6406 1160.44 10.2969C1160.09 9.95312 1159.69 9.70312 1159.23 9.54688C1158.79 9.38021 1158.28 9.29688 1157.72 9.29688C1157.03 9.29688 1156.42 9.42708 1155.89 9.6875C1155.36 9.9375 1154.91 10.3385 1154.55 10.8906C1154.19 11.4427 1153.92 12.1667 1153.73 13.0625C1153.55 13.9583 1153.45 15.0469 1153.45 16.3281V20.75C1153.45 21.7708 1153.51 22.6719 1153.62 23.4531C1153.75 24.2344 1153.93 24.9115 1154.17 25.4844C1154.41 26.0469 1154.7 26.5104 1155.05 26.875C1155.39 27.2396 1155.79 27.5104 1156.23 27.6875C1156.69 27.8542 1157.2 27.9375 1157.75 27.9375C1158.46 27.9375 1159.08 27.8021 1159.61 27.5312C1160.14 27.2604 1160.58 26.8385 1160.94 26.2656C1161.3 25.6823 1161.57 24.9375 1161.75 24.0312C1161.93 23.1146 1162.02 22.0208 1162.02 20.75ZM1169 28.4688C1169 27.9792 1169.15 27.5677 1169.45 27.2344C1169.77 26.8906 1170.21 26.7188 1170.8 26.7188C1171.38 26.7188 1171.82 26.8906 1172.12 27.2344C1172.44 27.5677 1172.59 27.9792 1172.59 28.4688C1172.59 28.9479 1172.44 29.3542 1172.12 29.6875C1171.82 30.0208 1171.38 30.1875 1170.8 30.1875C1170.21 30.1875 1169.77 30.0208 1169.45 29.6875C1169.15 29.3542 1169 28.9479 1169 28.4688ZM1188.17 7.21875H1188.42V9.67188H1188.17C1186.64 9.67188 1185.36 9.92188 1184.33 10.4219C1183.3 10.9115 1182.48 11.5729 1181.88 12.4062C1181.27 13.2292 1180.83 14.1562 1180.56 15.1875C1180.3 16.2188 1180.17 17.2656 1180.17 18.3281V21.6719C1180.17 22.6823 1180.29 23.5781 1180.53 24.3594C1180.77 25.1302 1181.1 25.7812 1181.52 26.3125C1181.93 26.8438 1182.4 27.2448 1182.92 27.5156C1183.45 27.7865 1184.01 27.9219 1184.58 27.9219C1185.24 27.9219 1185.84 27.7969 1186.36 27.5469C1186.88 27.2865 1187.32 26.9271 1187.67 26.4688C1188.04 26 1188.31 25.4479 1188.5 24.8125C1188.69 24.1771 1188.78 23.4792 1188.78 22.7188C1188.78 22.0417 1188.7 21.3906 1188.53 20.7656C1188.36 20.1302 1188.11 19.5677 1187.77 19.0781C1187.42 18.5781 1186.99 18.1875 1186.47 17.9062C1185.96 17.6146 1185.35 17.4688 1184.64 17.4688C1183.84 17.4688 1183.09 17.6667 1182.39 18.0625C1181.7 18.4479 1181.14 18.9583 1180.69 19.5938C1180.25 20.2188 1180 20.901 1179.94 21.6406L1178.41 21.625C1178.55 20.4583 1178.82 19.4635 1179.22 18.6406C1179.62 17.8073 1180.12 17.1302 1180.72 16.6094C1181.32 16.0781 1181.99 15.6927 1182.73 15.4531C1183.48 15.2031 1184.28 15.0781 1185.11 15.0781C1186.24 15.0781 1187.22 15.2917 1188.05 15.7188C1188.87 16.1458 1189.55 16.7188 1190.08 17.4375C1190.61 18.1458 1191 18.9479 1191.25 19.8438C1191.51 20.7292 1191.64 21.6406 1191.64 22.5781C1191.64 23.651 1191.49 24.6562 1191.19 25.5938C1190.89 26.5312 1190.43 27.3542 1189.83 28.0625C1189.23 28.7708 1188.5 29.3229 1187.62 29.7188C1186.75 30.1146 1185.73 30.3125 1184.58 30.3125C1183.35 30.3125 1182.28 30.0625 1181.36 29.5625C1180.44 29.0521 1179.68 28.375 1179.08 27.5312C1178.47 26.6875 1178.02 25.75 1177.72 24.7188C1177.42 23.6875 1177.27 22.6406 1177.27 21.5781V20.2188C1177.27 18.6146 1177.43 17.0417 1177.75 15.5C1178.07 13.9583 1178.63 12.5625 1179.42 11.3125C1180.22 10.0625 1181.33 9.06771 1182.75 8.32812C1184.17 7.58854 1185.97 7.21875 1188.17 7.21875ZM1206.2 16.4531V30H1203.3V13.0938H1206.05L1206.2 16.4531ZM1205.61 20.9062L1204.27 20.8594C1204.28 19.7031 1204.43 18.6354 1204.72 17.6562C1205.01 16.6667 1205.44 15.8073 1206.02 15.0781C1206.59 14.349 1207.3 13.7865 1208.16 13.3906C1209.01 12.9844 1210 12.7812 1211.12 12.7812C1211.92 12.7812 1212.65 12.8958 1213.31 13.125C1213.98 13.3438 1214.56 13.6927 1215.05 14.1719C1215.54 14.651 1215.92 15.2656 1216.19 16.0156C1216.46 16.7656 1216.59 17.6719 1216.59 18.7344V30H1213.7V18.875C1213.7 17.9896 1213.55 17.2812 1213.25 16.75C1212.96 16.2188 1212.54 15.8333 1212 15.5938C1211.46 15.3438 1210.82 15.2188 1210.09 15.2188C1209.24 15.2188 1208.53 15.3698 1207.95 15.6719C1207.38 15.974 1206.92 16.3906 1206.58 16.9219C1206.23 17.4531 1205.98 18.0625 1205.83 18.75C1205.68 19.4271 1205.61 20.1458 1205.61 20.9062ZM1216.56 19.3125L1214.62 19.9062C1214.64 18.9792 1214.79 18.0885 1215.08 17.2344C1215.38 16.3802 1215.81 15.6198 1216.38 14.9531C1216.95 14.2865 1217.65 13.7604 1218.48 13.375C1219.32 12.9792 1220.27 12.7812 1221.34 12.7812C1222.25 12.7812 1223.05 12.901 1223.75 13.1406C1224.46 13.3802 1225.05 13.75 1225.53 14.25C1226.02 14.7396 1226.39 15.3698 1226.64 16.1406C1226.89 16.9115 1227.02 17.8281 1227.02 18.8906V30H1224.11V18.8594C1224.11 17.9115 1223.96 17.1771 1223.66 16.6562C1223.36 16.125 1222.95 15.7552 1222.41 15.5469C1221.88 15.3281 1221.24 15.2188 1220.5 15.2188C1219.86 15.2188 1219.3 15.3281 1218.81 15.5469C1218.32 15.7656 1217.91 16.0677 1217.58 16.4531C1217.24 16.8281 1216.99 17.2604 1216.81 17.75C1216.65 18.2396 1216.56 18.7604 1216.56 19.3125ZM1234.53 13.0938V30H1231.62V13.0938H1234.53ZM1231.41 8.60938C1231.41 8.14062 1231.55 7.74479 1231.83 7.42188C1232.12 7.09896 1232.55 6.9375 1233.11 6.9375C1233.66 6.9375 1234.08 7.09896 1234.38 7.42188C1234.68 7.74479 1234.83 8.14062 1234.83 8.60938C1234.83 9.05729 1234.68 9.44271 1234.38 9.76562C1234.08 10.0781 1233.66 10.2344 1233.11 10.2344C1232.55 10.2344 1232.12 10.0781 1231.83 9.76562C1231.55 9.44271 1231.41 9.05729 1231.41 8.60938ZM1242.31 6V30H1239.41V6H1242.31ZM1250.09 6V30H1247.19V6H1250.09ZM1257.88 13.0938V30H1254.97V13.0938H1257.88ZM1254.75 8.60938C1254.75 8.14062 1254.89 7.74479 1255.17 7.42188C1255.46 7.09896 1255.89 6.9375 1256.45 6.9375C1257.01 6.9375 1257.43 7.09896 1257.72 7.42188C1258.02 7.74479 1258.17 8.14062 1258.17 8.60938C1258.17 9.05729 1258.02 9.44271 1257.72 9.76562C1257.43 10.0781 1257.01 10.2344 1256.45 10.2344C1255.89 10.2344 1255.46 10.0781 1255.17 9.76562C1254.89 9.44271 1254.75 9.05729 1254.75 8.60938ZM1261.75 21.7344V21.375C1261.75 20.1562 1261.93 19.026 1262.28 17.9844C1262.64 16.9323 1263.15 16.0208 1263.81 15.25C1264.48 14.4688 1265.29 13.8646 1266.23 13.4375C1267.18 13 1268.24 12.7812 1269.42 12.7812C1270.61 12.7812 1271.68 13 1272.62 13.4375C1273.58 13.8646 1274.4 14.4688 1275.06 15.25C1275.74 16.0208 1276.26 16.9323 1276.61 17.9844C1276.96 19.026 1277.14 20.1562 1277.14 21.375V21.7344C1277.14 22.9531 1276.96 24.0833 1276.61 25.125C1276.26 26.1667 1275.74 27.0781 1275.06 27.8594C1274.4 28.6302 1273.59 29.2344 1272.64 29.6719C1271.7 30.099 1270.64 30.3125 1269.45 30.3125C1268.27 30.3125 1267.2 30.099 1266.25 29.6719C1265.3 29.2344 1264.49 28.6302 1263.81 27.8594C1263.15 27.0781 1262.64 26.1667 1262.28 25.125C1261.93 24.0833 1261.75 22.9531 1261.75 21.7344ZM1264.64 21.375V21.7344C1264.64 22.5781 1264.74 23.375 1264.94 24.125C1265.14 24.8646 1265.43 25.5208 1265.83 26.0938C1266.23 26.6667 1266.74 27.1198 1267.34 27.4531C1267.95 27.776 1268.65 27.9375 1269.45 27.9375C1270.24 27.9375 1270.94 27.776 1271.53 27.4531C1272.14 27.1198 1272.64 26.6667 1273.03 26.0938C1273.43 25.5208 1273.72 24.8646 1273.92 24.125C1274.13 23.375 1274.23 22.5781 1274.23 21.7344V21.375C1274.23 20.5417 1274.13 19.7552 1273.92 19.0156C1273.72 18.2656 1273.42 17.6042 1273.02 17.0312C1272.62 16.4479 1272.12 15.9896 1271.52 15.6562C1270.92 15.3229 1270.22 15.1562 1269.42 15.1562C1268.63 15.1562 1267.93 15.3229 1267.33 15.6562C1266.73 15.9896 1266.23 16.4479 1265.83 17.0312C1265.43 17.6042 1265.14 18.2656 1264.94 19.0156C1264.74 19.7552 1264.64 20.5417 1264.64 21.375ZM1283.66 16.7031V30H1280.77V13.0938H1283.5L1283.66 16.7031ZM1282.97 20.9062L1281.77 20.8594C1281.78 19.7031 1281.95 18.6354 1282.28 17.6562C1282.61 16.6667 1283.08 15.8073 1283.69 15.0781C1284.29 14.349 1285.01 13.7865 1285.84 13.3906C1286.69 12.9844 1287.62 12.7812 1288.64 12.7812C1289.47 12.7812 1290.22 12.8958 1290.89 13.125C1291.56 13.3438 1292.12 13.6979 1292.59 14.1875C1293.07 14.6771 1293.44 15.3125 1293.69 16.0938C1293.94 16.8646 1294.06 17.8073 1294.06 18.9219V30H1291.16V18.8906C1291.16 18.0052 1291.03 17.2969 1290.77 16.7656C1290.51 16.224 1290.12 15.8333 1289.62 15.5938C1289.12 15.3438 1288.51 15.2188 1287.78 15.2188C1287.06 15.2188 1286.41 15.3698 1285.81 15.6719C1285.23 15.974 1284.72 16.3906 1284.3 16.9219C1283.88 17.4531 1283.55 18.0625 1283.31 18.75C1283.08 19.4271 1282.97 20.1458 1282.97 20.9062ZM1128.67 61.3594V45.25H1131.67V61.3594C1131.67 62.8594 1131.36 64.125 1130.75 65.1562C1130.14 66.1875 1129.29 66.974 1128.2 67.5156C1127.13 68.0469 1125.9 68.3125 1124.5 68.3125C1123.1 68.3125 1121.86 68.0729 1120.78 67.5938C1119.7 67.1146 1118.85 66.3854 1118.23 65.4062C1117.62 64.4271 1117.31 63.1927 1117.31 61.7031H1120.33C1120.33 62.6615 1120.51 63.4479 1120.86 64.0625C1121.21 64.6771 1121.7 65.1302 1122.33 65.4219C1122.96 65.7135 1123.69 65.8594 1124.5 65.8594C1125.29 65.8594 1126 65.6927 1126.62 65.3594C1127.26 65.0156 1127.76 64.5104 1128.12 63.8438C1128.49 63.1667 1128.67 62.3385 1128.67 61.3594ZM1146.31 65.1094V56.4062C1146.31 55.7396 1146.18 55.1615 1145.91 54.6719C1145.65 54.1719 1145.25 53.7865 1144.72 53.5156C1144.19 53.2448 1143.53 53.1094 1142.75 53.1094C1142.02 53.1094 1141.38 53.2344 1140.83 53.4844C1140.29 53.7344 1139.86 54.0625 1139.55 54.4688C1139.24 54.875 1139.09 55.3125 1139.09 55.7812H1136.2C1136.2 55.1771 1136.36 54.5781 1136.67 53.9844C1136.98 53.3906 1137.43 52.8542 1138.02 52.375C1138.61 51.8854 1139.32 51.5 1140.14 51.2188C1140.97 50.9271 1141.9 50.7812 1142.92 50.7812C1144.15 50.7812 1145.23 50.9896 1146.17 51.4062C1147.12 51.8229 1147.86 52.4531 1148.39 53.2969C1148.93 54.1302 1149.2 55.1771 1149.2 56.4375V64.3125C1149.2 64.875 1149.25 65.474 1149.34 66.1094C1149.45 66.7448 1149.6 67.2917 1149.8 67.75V68H1146.78C1146.64 67.6667 1146.52 67.224 1146.44 66.6719C1146.35 66.1094 1146.31 65.5885 1146.31 65.1094ZM1146.81 57.75L1146.84 59.7812H1143.92C1143.1 59.7812 1142.36 59.849 1141.72 59.9844C1141.07 60.1094 1140.53 60.3021 1140.09 60.5625C1139.66 60.8229 1139.32 61.151 1139.09 61.5469C1138.86 61.9323 1138.75 62.3854 1138.75 62.9062C1138.75 63.4375 1138.87 63.9219 1139.11 64.3594C1139.35 64.7969 1139.71 65.1458 1140.19 65.4062C1140.68 65.6562 1141.28 65.7812 1141.98 65.7812C1142.87 65.7812 1143.65 65.5938 1144.33 65.2188C1145.01 64.8438 1145.54 64.3854 1145.94 63.8438C1146.34 63.3021 1146.56 62.776 1146.59 62.2656L1147.83 63.6562C1147.76 64.0938 1147.56 64.5781 1147.23 65.1094C1146.91 65.6406 1146.48 66.151 1145.94 66.6406C1145.41 67.1198 1144.77 67.5208 1144.03 67.8438C1143.3 68.1562 1142.48 68.3125 1141.56 68.3125C1140.42 68.3125 1139.41 68.0885 1138.55 67.6406C1137.69 67.1927 1137.03 66.5938 1136.55 65.8438C1136.08 65.0833 1135.84 64.2344 1135.84 63.2969C1135.84 62.3906 1136.02 61.5938 1136.38 60.9062C1136.73 60.2083 1137.24 59.6302 1137.91 59.1719C1138.57 58.7031 1139.38 58.349 1140.31 58.1094C1141.25 57.8698 1142.3 57.75 1143.45 57.75H1146.81ZM1156.64 54.7031V68H1153.75V51.0938H1156.48L1156.64 54.7031ZM1155.95 58.9062L1154.75 58.8594C1154.76 57.7031 1154.93 56.6354 1155.27 55.6562C1155.6 54.6667 1156.07 53.8073 1156.67 53.0781C1157.28 52.349 1157.99 51.7865 1158.83 51.3906C1159.67 50.9844 1160.6 50.7812 1161.62 50.7812C1162.46 50.7812 1163.21 50.8958 1163.88 51.125C1164.54 51.3438 1165.11 51.6979 1165.58 52.1875C1166.06 52.6771 1166.42 53.3125 1166.67 54.0938C1166.92 54.8646 1167.05 55.8073 1167.05 56.9219V68H1164.14V56.8906C1164.14 56.0052 1164.01 55.2969 1163.75 54.7656C1163.49 54.224 1163.11 53.8333 1162.61 53.5938C1162.11 53.3438 1161.49 53.2188 1160.77 53.2188C1160.05 53.2188 1159.39 53.3698 1158.8 53.6719C1158.21 53.974 1157.71 54.3906 1157.28 54.9219C1156.86 55.4531 1156.54 56.0625 1156.3 56.75C1156.07 57.4271 1155.95 58.1458 1155.95 58.9062ZM1181.78 64.0938V51.0938H1184.69V68H1181.92L1181.78 64.0938ZM1182.33 60.5312L1183.53 60.5C1183.53 61.625 1183.41 62.6667 1183.17 63.625C1182.94 64.5729 1182.57 65.3958 1182.05 66.0938C1181.53 66.7917 1180.84 67.3385 1180 67.7344C1179.16 68.1198 1178.13 68.3125 1176.92 68.3125C1176.1 68.3125 1175.34 68.1927 1174.66 67.9531C1173.98 67.7135 1173.4 67.3438 1172.91 66.8438C1172.42 66.3438 1172.04 65.6927 1171.77 64.8906C1171.51 64.0885 1171.38 63.125 1171.38 62V51.0938H1174.27V62.0312C1174.27 62.7917 1174.35 63.4219 1174.52 63.9219C1174.69 64.4115 1174.93 64.8021 1175.22 65.0938C1175.52 65.375 1175.85 65.5729 1176.22 65.6875C1176.59 65.8021 1176.98 65.8594 1177.38 65.8594C1178.6 65.8594 1179.58 65.625 1180.3 65.1562C1181.02 64.6771 1181.53 64.0365 1181.84 63.2344C1182.17 62.4219 1182.33 61.5208 1182.33 60.5312ZM1199.06 65.1094V56.4062C1199.06 55.7396 1198.93 55.1615 1198.66 54.6719C1198.4 54.1719 1198 53.7865 1197.47 53.5156C1196.94 53.2448 1196.28 53.1094 1195.5 53.1094C1194.77 53.1094 1194.13 53.2344 1193.58 53.4844C1193.04 53.7344 1192.61 54.0625 1192.3 54.4688C1191.99 54.875 1191.84 55.3125 1191.84 55.7812H1188.95C1188.95 55.1771 1189.11 54.5781 1189.42 53.9844C1189.73 53.3906 1190.18 52.8542 1190.77 52.375C1191.36 51.8854 1192.07 51.5 1192.89 51.2188C1193.72 50.9271 1194.65 50.7812 1195.67 50.7812C1196.9 50.7812 1197.98 50.9896 1198.92 51.4062C1199.87 51.8229 1200.61 52.4531 1201.14 53.2969C1201.68 54.1302 1201.95 55.1771 1201.95 56.4375V64.3125C1201.95 64.875 1202 65.474 1202.09 66.1094C1202.2 66.7448 1202.35 67.2917 1202.55 67.75V68H1199.53C1199.39 67.6667 1199.27 67.224 1199.19 66.6719C1199.1 66.1094 1199.06 65.5885 1199.06 65.1094ZM1199.56 57.75L1199.59 59.7812H1196.67C1195.85 59.7812 1195.11 59.849 1194.47 59.9844C1193.82 60.1094 1193.28 60.3021 1192.84 60.5625C1192.41 60.8229 1192.07 61.151 1191.84 61.5469C1191.61 61.9323 1191.5 62.3854 1191.5 62.9062C1191.5 63.4375 1191.62 63.9219 1191.86 64.3594C1192.1 64.7969 1192.46 65.1458 1192.94 65.4062C1193.43 65.6562 1194.03 65.7812 1194.73 65.7812C1195.62 65.7812 1196.4 65.5938 1197.08 65.2188C1197.76 64.8438 1198.29 64.3854 1198.69 63.8438C1199.09 63.3021 1199.31 62.776 1199.34 62.2656L1200.58 63.6562C1200.51 64.0938 1200.31 64.5781 1199.98 65.1094C1199.66 65.6406 1199.23 66.151 1198.69 66.6406C1198.16 67.1198 1197.52 67.5208 1196.78 67.8438C1196.05 68.1562 1195.23 68.3125 1194.31 68.3125C1193.17 68.3125 1192.16 68.0885 1191.3 67.6406C1190.44 67.1927 1189.78 66.5938 1189.3 65.8438C1188.83 65.0833 1188.59 64.2344 1188.59 63.2969C1188.59 62.3906 1188.77 61.5938 1189.12 60.9062C1189.48 60.2083 1189.99 59.6302 1190.66 59.1719C1191.32 58.7031 1192.12 58.349 1193.06 58.1094C1194 57.8698 1195.05 57.75 1196.2 57.75H1199.56ZM1209.39 53.75V68H1206.5V51.0938H1209.31L1209.39 53.75ZM1214.67 51L1214.66 53.6875C1214.42 53.6354 1214.19 53.6042 1213.97 53.5938C1213.76 53.5729 1213.52 53.5625 1213.25 53.5625C1212.58 53.5625 1211.99 53.6667 1211.48 53.875C1210.97 54.0833 1210.54 54.375 1210.19 54.75C1209.83 55.125 1209.55 55.5729 1209.34 56.0938C1209.15 56.6042 1209.02 57.1667 1208.95 57.7812L1208.14 58.25C1208.14 57.2292 1208.24 56.2708 1208.44 55.375C1208.65 54.4792 1208.96 53.6875 1209.39 53C1209.82 52.3021 1210.36 51.7604 1211.02 51.375C1211.68 50.9792 1212.47 50.7812 1213.39 50.7812C1213.6 50.7812 1213.84 50.8073 1214.11 50.8594C1214.38 50.901 1214.57 50.9479 1214.67 51ZM1222.38 66.25L1227.08 51.0938H1230.17L1223.39 70.6094C1223.23 71.026 1223.03 71.474 1222.77 71.9531C1222.52 72.4427 1222.19 72.9062 1221.8 73.3438C1221.4 73.7812 1220.92 74.1354 1220.36 74.4062C1219.81 74.6875 1219.15 74.8281 1218.38 74.8281C1218.15 74.8281 1217.85 74.7969 1217.5 74.7344C1217.15 74.6719 1216.9 74.6198 1216.75 74.5781L1216.73 72.2344C1216.82 72.2448 1216.95 72.2552 1217.12 72.2656C1217.31 72.2865 1217.44 72.2969 1217.52 72.2969C1218.17 72.2969 1218.73 72.2083 1219.19 72.0312C1219.65 71.8646 1220.03 71.5781 1220.34 71.1719C1220.67 70.776 1220.94 70.2292 1221.17 69.5312L1222.38 66.25ZM1218.92 51.0938L1223.31 64.2188L1224.06 67.2656L1221.98 68.3281L1215.77 51.0938H1218.92ZM1255.31 65.625V68H1240.42V65.9219L1247.88 57.625C1248.79 56.6042 1249.5 55.7396 1250 55.0312C1250.51 54.3125 1250.86 53.6719 1251.06 53.1094C1251.27 52.5365 1251.38 51.9531 1251.38 51.3594C1251.38 50.6094 1251.22 49.9323 1250.91 49.3281C1250.6 48.7135 1250.16 48.224 1249.56 47.8594C1248.97 47.4948 1248.25 47.3125 1247.41 47.3125C1246.4 47.3125 1245.55 47.5104 1244.88 47.9062C1244.21 48.2917 1243.71 48.8333 1243.38 49.5312C1243.04 50.2292 1242.88 51.0312 1242.88 51.9375H1239.98C1239.98 50.6562 1240.27 49.4844 1240.83 48.4219C1241.39 47.3594 1242.22 46.5156 1243.33 45.8906C1244.43 45.2552 1245.79 44.9375 1247.41 44.9375C1248.84 44.9375 1250.07 45.1927 1251.09 45.7031C1252.11 46.2031 1252.9 46.9115 1253.44 47.8281C1253.99 48.7344 1254.27 49.7969 1254.27 51.0156C1254.27 51.6823 1254.15 52.3594 1253.92 53.0469C1253.7 53.724 1253.4 54.401 1253 55.0781C1252.61 55.7552 1252.16 56.4219 1251.64 57.0781C1251.13 57.7344 1250.58 58.3802 1250 59.0156L1243.91 65.625H1255.31ZM1272.69 54.8125V58.2812C1272.69 60.1458 1272.52 61.7188 1272.19 63C1271.85 64.2812 1271.38 65.3125 1270.75 66.0938C1270.12 66.875 1269.37 67.4427 1268.48 67.7969C1267.61 68.1406 1266.62 68.3125 1265.52 68.3125C1264.64 68.3125 1263.83 68.2031 1263.09 67.9844C1262.35 67.7656 1261.69 67.4167 1261.09 66.9375C1260.51 66.4479 1260.01 65.8125 1259.59 65.0312C1259.18 64.25 1258.86 63.3021 1258.64 62.1875C1258.42 61.0729 1258.31 59.7708 1258.31 58.2812V54.8125C1258.31 52.9479 1258.48 51.3854 1258.81 50.125C1259.16 48.8646 1259.64 47.8542 1260.27 47.0938C1260.89 46.3229 1261.64 45.7708 1262.52 45.4375C1263.4 45.1042 1264.39 44.9375 1265.48 44.9375C1266.37 44.9375 1267.18 45.0469 1267.92 45.2656C1268.67 45.474 1269.34 45.8125 1269.92 46.2812C1270.51 46.7396 1271 47.3542 1271.41 48.125C1271.82 48.8854 1272.14 49.8177 1272.36 50.9219C1272.58 52.026 1272.69 53.3229 1272.69 54.8125ZM1269.78 58.75V54.3281C1269.78 53.3073 1269.72 52.4115 1269.59 51.6406C1269.48 50.8594 1269.31 50.1927 1269.08 49.6406C1268.85 49.0885 1268.56 48.6406 1268.2 48.2969C1267.86 47.9531 1267.46 47.7031 1267 47.5469C1266.55 47.3802 1266.05 47.2969 1265.48 47.2969C1264.8 47.2969 1264.19 47.4271 1263.66 47.6875C1263.12 47.9375 1262.68 48.3385 1262.31 48.8906C1261.96 49.4427 1261.69 50.1667 1261.5 51.0625C1261.31 51.9583 1261.22 53.0469 1261.22 54.3281V58.75C1261.22 59.7708 1261.28 60.6719 1261.39 61.4531C1261.52 62.2344 1261.7 62.9115 1261.94 63.4844C1262.18 64.0469 1262.47 64.5104 1262.81 64.875C1263.16 65.2396 1263.55 65.5104 1264 65.6875C1264.46 65.8542 1264.96 65.9375 1265.52 65.9375C1266.22 65.9375 1266.84 65.8021 1267.38 65.5312C1267.91 65.2604 1268.35 64.8385 1268.7 64.2656C1269.07 63.6823 1269.34 62.9375 1269.52 62.0312C1269.69 61.1146 1269.78 60.0208 1269.78 58.75ZM1291.31 65.625V68H1276.42V65.9219L1283.88 57.625C1284.79 56.6042 1285.5 55.7396 1286 55.0312C1286.51 54.3125 1286.86 53.6719 1287.06 53.1094C1287.27 52.5365 1287.38 51.9531 1287.38 51.3594C1287.38 50.6094 1287.22 49.9323 1286.91 49.3281C1286.6 48.7135 1286.16 48.224 1285.56 47.8594C1284.97 47.4948 1284.25 47.3125 1283.41 47.3125C1282.4 47.3125 1281.55 47.5104 1280.88 47.9062C1280.21 48.2917 1279.71 48.8333 1279.38 49.5312C1279.04 50.2292 1278.88 51.0312 1278.88 51.9375H1275.98C1275.98 50.6562 1276.27 49.4844 1276.83 48.4219C1277.39 47.3594 1278.22 46.5156 1279.33 45.8906C1280.43 45.2552 1281.79 44.9375 1283.41 44.9375C1284.84 44.9375 1286.07 45.1927 1287.09 45.7031C1288.11 46.2031 1288.9 46.9115 1289.44 47.8281C1289.99 48.7344 1290.27 49.7969 1290.27 51.0156C1290.27 51.6823 1290.15 52.3594 1289.92 53.0469C1289.7 53.724 1289.4 54.401 1289 55.0781C1288.61 55.7552 1288.16 56.4219 1287.64 57.0781C1287.13 57.7344 1286.58 58.3802 1286 59.0156L1279.91 65.625H1291.31ZM1308.69 54.8125V58.2812C1308.69 60.1458 1308.52 61.7188 1308.19 63C1307.85 64.2812 1307.38 65.3125 1306.75 66.0938C1306.12 66.875 1305.37 67.4427 1304.48 67.7969C1303.61 68.1406 1302.62 68.3125 1301.52 68.3125C1300.64 68.3125 1299.83 68.2031 1299.09 67.9844C1298.35 67.7656 1297.69 67.4167 1297.09 66.9375C1296.51 66.4479 1296.01 65.8125 1295.59 65.0312C1295.18 64.25 1294.86 63.3021 1294.64 62.1875C1294.42 61.0729 1294.31 59.7708 1294.31 58.2812V54.8125C1294.31 52.9479 1294.48 51.3854 1294.81 50.125C1295.16 48.8646 1295.64 47.8542 1296.27 47.0938C1296.89 46.3229 1297.64 45.7708 1298.52 45.4375C1299.4 45.1042 1300.39 44.9375 1301.48 44.9375C1302.37 44.9375 1303.18 45.0469 1303.92 45.2656C1304.67 45.474 1305.34 45.8125 1305.92 46.2812C1306.51 46.7396 1307 47.3542 1307.41 48.125C1307.82 48.8854 1308.14 49.8177 1308.36 50.9219C1308.58 52.026 1308.69 53.3229 1308.69 54.8125ZM1305.78 58.75V54.3281C1305.78 53.3073 1305.72 52.4115 1305.59 51.6406C1305.48 50.8594 1305.31 50.1927 1305.08 49.6406C1304.85 49.0885 1304.56 48.6406 1304.2 48.2969C1303.86 47.9531 1303.46 47.7031 1303 47.5469C1302.55 47.3802 1302.05 47.2969 1301.48 47.2969C1300.8 47.2969 1300.19 47.4271 1299.66 47.6875C1299.12 47.9375 1298.68 48.3385 1298.31 48.8906C1297.96 49.4427 1297.69 50.1667 1297.5 51.0625C1297.31 51.9583 1297.22 53.0469 1297.22 54.3281V58.75C1297.22 59.7708 1297.28 60.6719 1297.39 61.4531C1297.52 62.2344 1297.7 62.9115 1297.94 63.4844C1298.18 64.0469 1298.47 64.5104 1298.81 64.875C1299.16 65.2396 1299.55 65.5104 1300 65.6875C1300.46 65.8542 1300.96 65.9375 1301.52 65.9375C1302.22 65.9375 1302.84 65.8021 1303.38 65.5312C1303.91 65.2604 1304.35 64.8385 1304.7 64.2656C1305.07 63.6823 1305.34 62.9375 1305.52 62.0312C1305.69 61.1146 1305.78 60.0208 1305.78 58.75Z" fill="black"/>
<line x1="0.992493" y1="100" x2="1313.99" y2="98.0285" stroke="#FFD7AF" stroke-width="10"/>
</svg>
