<svg width="1192" height="353" viewBox="0 0 1192 353" fill="none" xmlns="http://www.w3.org/2000/svg">
<path d="M1.70896 200.394C1.33618 197.971 3.2109 195.786 5.66244 195.786H75.9211C78.3336 195.786 80.1971 197.906 79.8882 200.298L60.6215 349.512C60.364 351.507 58.6656 353 56.6545 353H28.6184C26.6442 353 24.9652 351.56 24.665 349.608L1.70896 200.394Z" fill="#234D87"/>
<circle cx="40.7352" cy="167.28" r="34.2802" fill="#234D87" stroke="white" stroke-width="4"/>
<path d="M125.18 200.394C124.807 197.971 126.682 195.786 129.133 195.786H199.392C201.804 195.786 203.668 197.906 203.359 200.298L184.092 349.512C183.835 351.507 182.136 353 180.125 353H152.089C150.115 353 148.436 351.56 148.136 349.608L125.18 200.394Z" fill="#234D87"/>
<circle cx="164.206" cy="167.28" r="34.2802" fill="#234D87" stroke="white" stroke-width="4"/>
<path d="M248.65 200.394C248.278 197.971 250.152 195.786 252.604 195.786H322.863C325.275 195.786 327.139 197.906 326.83 200.298L307.563 349.512C307.305 351.507 305.607 353 303.596 353H275.56C273.586 353 271.907 351.56 271.606 349.608L248.65 200.394Z" fill="#234D87"/>
<circle cx="287.677" cy="167.28" r="34.2802" fill="#234D87" stroke="white" stroke-width="4"/>
<path d="M372.121 200.394C371.748 197.971 373.623 195.786 376.075 195.786H446.333C448.746 195.786 450.609 197.906 450.3 200.298L431.034 349.512C430.776 351.507 429.078 353 427.067 353H399.031C397.056 353 395.377 351.56 395.077 349.608L372.121 200.394Z" fill="#234D87"/>
<circle cx="411.147" cy="167.28" r="34.2802" fill="#234D87" stroke="white" stroke-width="4"/>
<path d="M495.592 200.394C495.219 197.971 497.094 195.786 499.545 195.786H569.804C572.216 195.786 574.08 197.906 573.771 200.298L554.504 349.512C554.247 351.507 552.548 353 550.537 353H522.501C520.527 353 518.848 351.56 518.548 349.608L495.592 200.394Z" fill="#234D87"/>
<circle cx="534.618" cy="167.28" r="34.2802" fill="#234D87" stroke="white" stroke-width="4"/>
<path d="M619.062 200.394C618.69 197.971 620.564 195.786 623.016 195.786H693.275C695.687 195.786 697.551 197.906 697.242 200.298L677.975 349.512C677.718 351.507 676.019 353 674.008 353H645.972C643.998 353 642.319 351.56 642.018 349.608L619.062 200.394Z" fill="#234D87"/>
<circle cx="658.089" cy="167.28" r="34.2802" fill="#234D87" stroke="white" stroke-width="4"/>
<path d="M742.533 200.394C742.16 197.971 744.035 195.786 746.487 195.786H816.745C819.158 195.786 821.021 197.906 820.712 200.298L801.446 349.512C801.188 351.507 799.49 353 797.479 353H769.443C767.468 353 765.789 351.56 765.489 349.608L742.533 200.394Z" fill="#234D87"/>
<circle cx="781.559" cy="167.28" r="34.2802" fill="#234D87" stroke="white" stroke-width="4"/>
<path d="M866.004 200.394C865.631 197.971 867.506 195.786 869.957 195.786H940.216C942.629 195.786 944.492 197.906 944.183 200.298L924.916 349.512C924.659 351.507 922.961 353 920.949 353H892.913C890.939 353 889.26 351.56 888.96 349.608L866.004 200.394Z" fill="#234D87"/>
<circle cx="905.03" cy="167.28" r="34.2802" fill="#234D87" stroke="white" stroke-width="4"/>
<path d="M989.475 200.394C989.102 197.971 990.977 195.786 993.428 195.786H1063.69C1066.1 195.786 1067.96 197.906 1067.65 200.298L1048.39 349.512C1048.13 351.507 1046.43 353 1044.42 353H1016.38C1014.41 353 1012.73 351.56 1012.43 349.608L989.475 200.394Z" fill="#234D87"/>
<circle cx="1028.5" cy="167.28" r="34.2802" fill="#234D87" stroke="white" stroke-width="4"/>
<path d="M1112.95 200.394C1112.57 197.971 1114.45 195.786 1116.9 195.786H1187.16C1189.57 195.786 1191.43 197.906 1191.12 200.298L1171.86 349.512C1171.6 351.507 1169.9 353 1167.89 353H1139.85C1137.88 353 1136.2 351.56 1135.9 349.608L1112.95 200.394Z" fill="#234D87"/>
<circle cx="1151.97" cy="167.28" r="34.2802" fill="#234D87" stroke="white" stroke-width="4"/>
<path d="M1023.14 7.125V30H1020.25V10.7344L1014.42 12.8594V10.25L1022.69 7.125H1023.14ZM1045.92 16.8125V20.2812C1045.92 22.1458 1045.76 23.7188 1045.42 25C1045.09 26.2812 1044.61 27.3125 1043.98 28.0938C1043.36 28.875 1042.6 29.4427 1041.72 29.7969C1040.84 30.1406 1039.85 30.3125 1038.75 30.3125C1037.88 30.3125 1037.07 30.2031 1036.33 29.9844C1035.59 29.7656 1034.92 29.4167 1034.33 28.9375C1033.74 28.4479 1033.24 27.8125 1032.83 27.0312C1032.41 26.25 1032.09 25.3021 1031.88 24.1875C1031.66 23.0729 1031.55 21.7708 1031.55 20.2812V16.8125C1031.55 14.9479 1031.71 13.3854 1032.05 12.125C1032.39 10.8646 1032.88 9.85417 1033.5 9.09375C1034.12 8.32292 1034.88 7.77083 1035.75 7.4375C1036.64 7.10417 1037.62 6.9375 1038.72 6.9375C1039.6 6.9375 1040.42 7.04688 1041.16 7.26562C1041.91 7.47396 1042.57 7.8125 1043.16 8.28125C1043.74 8.73958 1044.23 9.35417 1044.64 10.125C1045.06 10.8854 1045.38 11.8177 1045.59 12.9219C1045.81 14.026 1045.92 15.3229 1045.92 16.8125ZM1043.02 20.75V16.3281C1043.02 15.3073 1042.95 14.4115 1042.83 13.6406C1042.71 12.8594 1042.54 12.1927 1042.31 11.6406C1042.08 11.0885 1041.79 10.6406 1041.44 10.2969C1041.09 9.95312 1040.69 9.70312 1040.23 9.54688C1039.79 9.38021 1039.28 9.29688 1038.72 9.29688C1038.03 9.29688 1037.42 9.42708 1036.89 9.6875C1036.36 9.9375 1035.91 10.3385 1035.55 10.8906C1035.19 11.4427 1034.92 12.1667 1034.73 13.0625C1034.55 13.9583 1034.45 15.0469 1034.45 16.3281V20.75C1034.45 21.7708 1034.51 22.6719 1034.62 23.4531C1034.75 24.2344 1034.93 24.9115 1035.17 25.4844C1035.41 26.0469 1035.7 26.5104 1036.05 26.875C1036.39 27.2396 1036.79 27.5104 1037.23 27.6875C1037.69 27.8542 1038.2 27.9375 1038.75 27.9375C1039.46 27.9375 1040.08 27.8021 1040.61 27.5312C1041.14 27.2604 1041.58 26.8385 1041.94 26.2656C1042.3 25.6823 1042.57 24.9375 1042.75 24.0312C1042.93 23.1146 1043.02 22.0208 1043.02 20.75ZM1050 28.4688C1050 27.9792 1050.15 27.5677 1050.45 27.2344C1050.77 26.8906 1051.21 26.7188 1051.8 26.7188C1052.38 26.7188 1052.82 26.8906 1053.12 27.2344C1053.44 27.5677 1053.59 27.9792 1053.59 28.4688C1053.59 28.9479 1053.44 29.3542 1053.12 29.6875C1052.82 30.0208 1052.38 30.1875 1051.8 30.1875C1051.21 30.1875 1050.77 30.0208 1050.45 29.6875C1050.15 29.3542 1050 28.9479 1050 28.4688ZM1072.36 16.8125V20.2812C1072.36 22.1458 1072.19 23.7188 1071.86 25C1071.53 26.2812 1071.05 27.3125 1070.42 28.0938C1069.8 28.875 1069.04 29.4427 1068.16 29.7969C1067.28 30.1406 1066.29 30.3125 1065.19 30.3125C1064.31 30.3125 1063.51 30.2031 1062.77 29.9844C1062.03 29.7656 1061.36 29.4167 1060.77 28.9375C1060.18 28.4479 1059.68 27.8125 1059.27 27.0312C1058.85 26.25 1058.53 25.3021 1058.31 24.1875C1058.09 23.0729 1057.98 21.7708 1057.98 20.2812V16.8125C1057.98 14.9479 1058.15 13.3854 1058.48 12.125C1058.83 10.8646 1059.31 9.85417 1059.94 9.09375C1060.56 8.32292 1061.31 7.77083 1062.19 7.4375C1063.07 7.10417 1064.06 6.9375 1065.16 6.9375C1066.04 6.9375 1066.85 7.04688 1067.59 7.26562C1068.34 7.47396 1069.01 7.8125 1069.59 8.28125C1070.18 8.73958 1070.67 9.35417 1071.08 10.125C1071.49 10.8854 1071.81 11.8177 1072.03 12.9219C1072.25 14.026 1072.36 15.3229 1072.36 16.8125ZM1069.45 20.75V16.3281C1069.45 15.3073 1069.39 14.4115 1069.27 13.6406C1069.15 12.8594 1068.98 12.1927 1068.75 11.6406C1068.52 11.0885 1068.23 10.6406 1067.88 10.2969C1067.53 9.95312 1067.13 9.70312 1066.67 9.54688C1066.22 9.38021 1065.72 9.29688 1065.16 9.29688C1064.47 9.29688 1063.86 9.42708 1063.33 9.6875C1062.8 9.9375 1062.35 10.3385 1061.98 10.8906C1061.63 11.4427 1061.36 12.1667 1061.17 13.0625C1060.98 13.9583 1060.89 15.0469 1060.89 16.3281V20.75C1060.89 21.7708 1060.95 22.6719 1061.06 23.4531C1061.19 24.2344 1061.37 24.9115 1061.61 25.4844C1061.85 26.0469 1062.14 26.5104 1062.48 26.875C1062.83 27.2396 1063.22 27.5104 1063.67 27.6875C1064.13 27.8542 1064.64 27.9375 1065.19 27.9375C1065.9 27.9375 1066.52 27.8021 1067.05 27.5312C1067.58 27.2604 1068.02 26.8385 1068.38 26.2656C1068.74 25.6823 1069.01 24.9375 1069.19 24.0312C1069.36 23.1146 1069.45 22.0208 1069.45 20.75ZM1087.2 16.4531V30H1084.3V13.0938H1087.05L1087.2 16.4531ZM1086.61 20.9062L1085.27 20.8594C1085.28 19.7031 1085.43 18.6354 1085.72 17.6562C1086.01 16.6667 1086.44 15.8073 1087.02 15.0781C1087.59 14.349 1088.3 13.7865 1089.16 13.3906C1090.01 12.9844 1091 12.7812 1092.12 12.7812C1092.92 12.7812 1093.65 12.8958 1094.31 13.125C1094.98 13.3438 1095.56 13.6927 1096.05 14.1719C1096.54 14.651 1096.92 15.2656 1097.19 16.0156C1097.46 16.7656 1097.59 17.6719 1097.59 18.7344V30H1094.7V18.875C1094.7 17.9896 1094.55 17.2812 1094.25 16.75C1093.96 16.2188 1093.54 15.8333 1093 15.5938C1092.46 15.3438 1091.82 15.2188 1091.09 15.2188C1090.24 15.2188 1089.53 15.3698 1088.95 15.6719C1088.38 15.974 1087.92 16.3906 1087.58 16.9219C1087.23 17.4531 1086.98 18.0625 1086.83 18.75C1086.68 19.4271 1086.61 20.1458 1086.61 20.9062ZM1097.56 19.3125L1095.62 19.9062C1095.64 18.9792 1095.79 18.0885 1096.08 17.2344C1096.38 16.3802 1096.81 15.6198 1097.38 14.9531C1097.95 14.2865 1098.65 13.7604 1099.48 13.375C1100.32 12.9792 1101.27 12.7812 1102.34 12.7812C1103.25 12.7812 1104.05 12.901 1104.75 13.1406C1105.46 13.3802 1106.05 13.75 1106.53 14.25C1107.02 14.7396 1107.39 15.3698 1107.64 16.1406C1107.89 16.9115 1108.02 17.8281 1108.02 18.8906V30H1105.11V18.8594C1105.11 17.9115 1104.96 17.1771 1104.66 16.6562C1104.36 16.125 1103.95 15.7552 1103.41 15.5469C1102.88 15.3281 1102.24 15.2188 1101.5 15.2188C1100.86 15.2188 1100.3 15.3281 1099.81 15.5469C1099.32 15.7656 1098.91 16.0677 1098.58 16.4531C1098.24 16.8281 1097.99 17.2604 1097.81 17.75C1097.65 18.2396 1097.56 18.7604 1097.56 19.3125ZM1115.53 13.0938V30H1112.62V13.0938H1115.53ZM1112.41 8.60938C1112.41 8.14062 1112.55 7.74479 1112.83 7.42188C1113.12 7.09896 1113.55 6.9375 1114.11 6.9375C1114.66 6.9375 1115.08 7.09896 1115.38 7.42188C1115.68 7.74479 1115.83 8.14062 1115.83 8.60938C1115.83 9.05729 1115.68 9.44271 1115.38 9.76562C1115.08 10.0781 1114.66 10.2344 1114.11 10.2344C1113.55 10.2344 1113.12 10.0781 1112.83 9.76562C1112.55 9.44271 1112.41 9.05729 1112.41 8.60938ZM1123.31 6V30H1120.41V6H1123.31ZM1131.09 6V30H1128.19V6H1131.09ZM1138.88 13.0938V30H1135.97V13.0938H1138.88ZM1135.75 8.60938C1135.75 8.14062 1135.89 7.74479 1136.17 7.42188C1136.46 7.09896 1136.89 6.9375 1137.45 6.9375C1138.01 6.9375 1138.43 7.09896 1138.72 7.42188C1139.02 7.74479 1139.17 8.14062 1139.17 8.60938C1139.17 9.05729 1139.02 9.44271 1138.72 9.76562C1138.43 10.0781 1138.01 10.2344 1137.45 10.2344C1136.89 10.2344 1136.46 10.0781 1136.17 9.76562C1135.89 9.44271 1135.75 9.05729 1135.75 8.60938ZM1142.75 21.7344V21.375C1142.75 20.1562 1142.93 19.026 1143.28 17.9844C1143.64 16.9323 1144.15 16.0208 1144.81 15.25C1145.48 14.4688 1146.29 13.8646 1147.23 13.4375C1148.18 13 1149.24 12.7812 1150.42 12.7812C1151.61 12.7812 1152.68 13 1153.62 13.4375C1154.58 13.8646 1155.4 14.4688 1156.06 15.25C1156.74 16.0208 1157.26 16.9323 1157.61 17.9844C1157.96 19.026 1158.14 20.1562 1158.14 21.375V21.7344C1158.14 22.9531 1157.96 24.0833 1157.61 25.125C1157.26 26.1667 1156.74 27.0781 1156.06 27.8594C1155.4 28.6302 1154.59 29.2344 1153.64 29.6719C1152.7 30.099 1151.64 30.3125 1150.45 30.3125C1149.27 30.3125 1148.2 30.099 1147.25 29.6719C1146.3 29.2344 1145.49 28.6302 1144.81 27.8594C1144.15 27.0781 1143.64 26.1667 1143.28 25.125C1142.93 24.0833 1142.75 22.9531 1142.75 21.7344ZM1145.64 21.375V21.7344C1145.64 22.5781 1145.74 23.375 1145.94 24.125C1146.14 24.8646 1146.43 25.5208 1146.83 26.0938C1147.23 26.6667 1147.74 27.1198 1148.34 27.4531C1148.95 27.776 1149.65 27.9375 1150.45 27.9375C1151.24 27.9375 1151.94 27.776 1152.53 27.4531C1153.14 27.1198 1153.64 26.6667 1154.03 26.0938C1154.43 25.5208 1154.72 24.8646 1154.92 24.125C1155.13 23.375 1155.23 22.5781 1155.23 21.7344V21.375C1155.23 20.5417 1155.13 19.7552 1154.92 19.0156C1154.72 18.2656 1154.42 17.6042 1154.02 17.0312C1153.62 16.4479 1153.12 15.9896 1152.52 15.6562C1151.92 15.3229 1151.22 15.1562 1150.42 15.1562C1149.63 15.1562 1148.93 15.3229 1148.33 15.6562C1147.73 15.9896 1147.23 16.4479 1146.83 17.0312C1146.43 17.6042 1146.14 18.2656 1145.94 19.0156C1145.74 19.7552 1145.64 20.5417 1145.64 21.375ZM1164.66 16.7031V30H1161.77V13.0938H1164.5L1164.66 16.7031ZM1163.97 20.9062L1162.77 20.8594C1162.78 19.7031 1162.95 18.6354 1163.28 17.6562C1163.61 16.6667 1164.08 15.8073 1164.69 15.0781C1165.29 14.349 1166.01 13.7865 1166.84 13.3906C1167.69 12.9844 1168.62 12.7812 1169.64 12.7812C1170.47 12.7812 1171.22 12.8958 1171.89 13.125C1172.56 13.3438 1173.12 13.6979 1173.59 14.1875C1174.07 14.6771 1174.44 15.3125 1174.69 16.0938C1174.94 16.8646 1175.06 17.8073 1175.06 18.9219V30H1172.16V18.8906C1172.16 18.0052 1172.03 17.2969 1171.77 16.7656C1171.51 16.224 1171.12 15.8333 1170.62 15.5938C1170.12 15.3438 1169.51 15.2188 1168.78 15.2188C1168.06 15.2188 1167.41 15.3698 1166.81 15.6719C1166.23 15.974 1165.72 16.3906 1165.3 16.9219C1164.88 17.4531 1164.55 18.0625 1164.31 18.75C1164.08 19.4271 1163.97 20.1458 1163.97 20.9062ZM1009.67 61.3594V45.25H1012.67V61.3594C1012.67 62.8594 1012.36 64.125 1011.75 65.1562C1011.14 66.1875 1010.29 66.974 1009.2 67.5156C1008.13 68.0469 1006.9 68.3125 1005.5 68.3125C1004.1 68.3125 1002.86 68.0729 1001.78 67.5938C1000.7 67.1146 999.849 66.3854 999.234 65.4062C998.62 64.4271 998.312 63.1927 998.312 61.7031H1001.33C1001.33 62.6615 1001.51 63.4479 1001.86 64.0625C1002.21 64.6771 1002.7 65.1302 1003.33 65.4219C1003.96 65.7135 1004.69 65.8594 1005.5 65.8594C1006.29 65.8594 1007 65.6927 1007.62 65.3594C1008.26 65.0156 1008.76 64.5104 1009.12 63.8438C1009.49 63.1667 1009.67 62.3385 1009.67 61.3594ZM1027.31 65.1094V56.4062C1027.31 55.7396 1027.18 55.1615 1026.91 54.6719C1026.65 54.1719 1026.25 53.7865 1025.72 53.5156C1025.19 53.2448 1024.53 53.1094 1023.75 53.1094C1023.02 53.1094 1022.38 53.2344 1021.83 53.4844C1021.29 53.7344 1020.86 54.0625 1020.55 54.4688C1020.24 54.875 1020.09 55.3125 1020.09 55.7812H1017.2C1017.2 55.1771 1017.36 54.5781 1017.67 53.9844C1017.98 53.3906 1018.43 52.8542 1019.02 52.375C1019.61 51.8854 1020.32 51.5 1021.14 51.2188C1021.97 50.9271 1022.9 50.7812 1023.92 50.7812C1025.15 50.7812 1026.23 50.9896 1027.17 51.4062C1028.12 51.8229 1028.86 52.4531 1029.39 53.2969C1029.93 54.1302 1030.2 55.1771 1030.2 56.4375V64.3125C1030.2 64.875 1030.25 65.474 1030.34 66.1094C1030.45 66.7448 1030.6 67.2917 1030.8 67.75V68H1027.78C1027.64 67.6667 1027.52 67.224 1027.44 66.6719C1027.35 66.1094 1027.31 65.5885 1027.31 65.1094ZM1027.81 57.75L1027.84 59.7812H1024.92C1024.1 59.7812 1023.36 59.849 1022.72 59.9844C1022.07 60.1094 1021.53 60.3021 1021.09 60.5625C1020.66 60.8229 1020.32 61.151 1020.09 61.5469C1019.86 61.9323 1019.75 62.3854 1019.75 62.9062C1019.75 63.4375 1019.87 63.9219 1020.11 64.3594C1020.35 64.7969 1020.71 65.1458 1021.19 65.4062C1021.68 65.6562 1022.28 65.7812 1022.98 65.7812C1023.87 65.7812 1024.65 65.5938 1025.33 65.2188C1026.01 64.8438 1026.54 64.3854 1026.94 63.8438C1027.34 63.3021 1027.56 62.776 1027.59 62.2656L1028.83 63.6562C1028.76 64.0938 1028.56 64.5781 1028.23 65.1094C1027.91 65.6406 1027.48 66.151 1026.94 66.6406C1026.41 67.1198 1025.77 67.5208 1025.03 67.8438C1024.3 68.1562 1023.48 68.3125 1022.56 68.3125C1021.42 68.3125 1020.41 68.0885 1019.55 67.6406C1018.69 67.1927 1018.03 66.5938 1017.55 65.8438C1017.08 65.0833 1016.84 64.2344 1016.84 63.2969C1016.84 62.3906 1017.02 61.5938 1017.38 60.9062C1017.73 60.2083 1018.24 59.6302 1018.91 59.1719C1019.57 58.7031 1020.38 58.349 1021.31 58.1094C1022.25 57.8698 1023.3 57.75 1024.45 57.75H1027.81ZM1037.64 54.7031V68H1034.75V51.0938H1037.48L1037.64 54.7031ZM1036.95 58.9062L1035.75 58.8594C1035.76 57.7031 1035.93 56.6354 1036.27 55.6562C1036.6 54.6667 1037.07 53.8073 1037.67 53.0781C1038.28 52.349 1038.99 51.7865 1039.83 51.3906C1040.67 50.9844 1041.6 50.7812 1042.62 50.7812C1043.46 50.7812 1044.21 50.8958 1044.88 51.125C1045.54 51.3438 1046.11 51.6979 1046.58 52.1875C1047.06 52.6771 1047.42 53.3125 1047.67 54.0938C1047.92 54.8646 1048.05 55.8073 1048.05 56.9219V68H1045.14V56.8906C1045.14 56.0052 1045.01 55.2969 1044.75 54.7656C1044.49 54.224 1044.11 53.8333 1043.61 53.5938C1043.11 53.3438 1042.49 53.2188 1041.77 53.2188C1041.05 53.2188 1040.39 53.3698 1039.8 53.6719C1039.21 53.974 1038.71 54.3906 1038.28 54.9219C1037.86 55.4531 1037.54 56.0625 1037.3 56.75C1037.07 57.4271 1036.95 58.1458 1036.95 58.9062ZM1062.78 64.0938V51.0938H1065.69V68H1062.92L1062.78 64.0938ZM1063.33 60.5312L1064.53 60.5C1064.53 61.625 1064.41 62.6667 1064.17 63.625C1063.94 64.5729 1063.57 65.3958 1063.05 66.0938C1062.53 66.7917 1061.84 67.3385 1061 67.7344C1060.16 68.1198 1059.13 68.3125 1057.92 68.3125C1057.1 68.3125 1056.34 68.1927 1055.66 67.9531C1054.98 67.7135 1054.4 67.3438 1053.91 66.8438C1053.42 66.3438 1053.04 65.6927 1052.77 64.8906C1052.51 64.0885 1052.38 63.125 1052.38 62V51.0938H1055.27V62.0312C1055.27 62.7917 1055.35 63.4219 1055.52 63.9219C1055.69 64.4115 1055.93 64.8021 1056.22 65.0938C1056.52 65.375 1056.85 65.5729 1057.22 65.6875C1057.59 65.8021 1057.98 65.8594 1058.38 65.8594C1059.6 65.8594 1060.58 65.625 1061.3 65.1562C1062.02 64.6771 1062.53 64.0365 1062.84 63.2344C1063.17 62.4219 1063.33 61.5208 1063.33 60.5312ZM1080.06 65.1094V56.4062C1080.06 55.7396 1079.93 55.1615 1079.66 54.6719C1079.4 54.1719 1079 53.7865 1078.47 53.5156C1077.94 53.2448 1077.28 53.1094 1076.5 53.1094C1075.77 53.1094 1075.13 53.2344 1074.58 53.4844C1074.04 53.7344 1073.61 54.0625 1073.3 54.4688C1072.99 54.875 1072.84 55.3125 1072.84 55.7812H1069.95C1069.95 55.1771 1070.11 54.5781 1070.42 53.9844C1070.73 53.3906 1071.18 52.8542 1071.77 52.375C1072.36 51.8854 1073.07 51.5 1073.89 51.2188C1074.72 50.9271 1075.65 50.7812 1076.67 50.7812C1077.9 50.7812 1078.98 50.9896 1079.92 51.4062C1080.87 51.8229 1081.61 52.4531 1082.14 53.2969C1082.68 54.1302 1082.95 55.1771 1082.95 56.4375V64.3125C1082.95 64.875 1083 65.474 1083.09 66.1094C1083.2 66.7448 1083.35 67.2917 1083.55 67.75V68H1080.53C1080.39 67.6667 1080.27 67.224 1080.19 66.6719C1080.1 66.1094 1080.06 65.5885 1080.06 65.1094ZM1080.56 57.75L1080.59 59.7812H1077.67C1076.85 59.7812 1076.11 59.849 1075.47 59.9844C1074.82 60.1094 1074.28 60.3021 1073.84 60.5625C1073.41 60.8229 1073.07 61.151 1072.84 61.5469C1072.61 61.9323 1072.5 62.3854 1072.5 62.9062C1072.5 63.4375 1072.62 63.9219 1072.86 64.3594C1073.1 64.7969 1073.46 65.1458 1073.94 65.4062C1074.43 65.6562 1075.03 65.7812 1075.73 65.7812C1076.62 65.7812 1077.4 65.5938 1078.08 65.2188C1078.76 64.8438 1079.29 64.3854 1079.69 63.8438C1080.09 63.3021 1080.31 62.776 1080.34 62.2656L1081.58 63.6562C1081.51 64.0938 1081.31 64.5781 1080.98 65.1094C1080.66 65.6406 1080.23 66.151 1079.69 66.6406C1079.16 67.1198 1078.52 67.5208 1077.78 67.8438C1077.05 68.1562 1076.23 68.3125 1075.31 68.3125C1074.17 68.3125 1073.16 68.0885 1072.3 67.6406C1071.44 67.1927 1070.78 66.5938 1070.3 65.8438C1069.83 65.0833 1069.59 64.2344 1069.59 63.2969C1069.59 62.3906 1069.77 61.5938 1070.12 60.9062C1070.48 60.2083 1070.99 59.6302 1071.66 59.1719C1072.32 58.7031 1073.12 58.349 1074.06 58.1094C1075 57.8698 1076.05 57.75 1077.2 57.75H1080.56ZM1090.39 53.75V68H1087.5V51.0938H1090.31L1090.39 53.75ZM1095.67 51L1095.66 53.6875C1095.42 53.6354 1095.19 53.6042 1094.97 53.5938C1094.76 53.5729 1094.52 53.5625 1094.25 53.5625C1093.58 53.5625 1092.99 53.6667 1092.48 53.875C1091.97 54.0833 1091.54 54.375 1091.19 54.75C1090.83 55.125 1090.55 55.5729 1090.34 56.0938C1090.15 56.6042 1090.02 57.1667 1089.95 57.7812L1089.14 58.25C1089.14 57.2292 1089.24 56.2708 1089.44 55.375C1089.65 54.4792 1089.96 53.6875 1090.39 53C1090.82 52.3021 1091.36 51.7604 1092.02 51.375C1092.68 50.9792 1093.47 50.7812 1094.39 50.7812C1094.6 50.7812 1094.84 50.8073 1095.11 50.8594C1095.38 50.901 1095.57 50.9479 1095.67 51ZM1103.38 66.25L1108.08 51.0938H1111.17L1104.39 70.6094C1104.23 71.026 1104.03 71.474 1103.77 71.9531C1103.52 72.4427 1103.19 72.9062 1102.8 73.3438C1102.4 73.7812 1101.92 74.1354 1101.36 74.4062C1100.81 74.6875 1100.15 74.8281 1099.38 74.8281C1099.15 74.8281 1098.85 74.7969 1098.5 74.7344C1098.15 74.6719 1097.9 74.6198 1097.75 74.5781L1097.73 72.2344C1097.82 72.2448 1097.95 72.2552 1098.12 72.2656C1098.31 72.2865 1098.44 72.2969 1098.52 72.2969C1099.17 72.2969 1099.73 72.2083 1100.19 72.0312C1100.65 71.8646 1101.03 71.5781 1101.34 71.1719C1101.67 70.776 1101.94 70.2292 1102.17 69.5312L1103.38 66.25ZM1099.92 51.0938L1104.31 64.2188L1105.06 67.2656L1102.98 68.3281L1096.77 51.0938H1099.92ZM1136.31 65.625V68H1121.42V65.9219L1128.88 57.625C1129.79 56.6042 1130.5 55.7396 1131 55.0312C1131.51 54.3125 1131.86 53.6719 1132.06 53.1094C1132.27 52.5365 1132.38 51.9531 1132.38 51.3594C1132.38 50.6094 1132.22 49.9323 1131.91 49.3281C1131.6 48.7135 1131.16 48.224 1130.56 47.8594C1129.97 47.4948 1129.25 47.3125 1128.41 47.3125C1127.4 47.3125 1126.55 47.5104 1125.88 47.9062C1125.21 48.2917 1124.71 48.8333 1124.38 49.5312C1124.04 50.2292 1123.88 51.0312 1123.88 51.9375H1120.98C1120.98 50.6562 1121.27 49.4844 1121.83 48.4219C1122.39 47.3594 1123.22 46.5156 1124.33 45.8906C1125.43 45.2552 1126.79 44.9375 1128.41 44.9375C1129.84 44.9375 1131.07 45.1927 1132.09 45.7031C1133.11 46.2031 1133.9 46.9115 1134.44 47.8281C1134.99 48.7344 1135.27 49.7969 1135.27 51.0156C1135.27 51.6823 1135.15 52.3594 1134.92 53.0469C1134.7 53.724 1134.4 54.401 1134 55.0781C1133.61 55.7552 1133.16 56.4219 1132.64 57.0781C1132.13 57.7344 1131.58 58.3802 1131 59.0156L1124.91 65.625H1136.31ZM1153.69 54.8125V58.2812C1153.69 60.1458 1153.52 61.7188 1153.19 63C1152.85 64.2812 1152.38 65.3125 1151.75 66.0938C1151.12 66.875 1150.37 67.4427 1149.48 67.7969C1148.61 68.1406 1147.62 68.3125 1146.52 68.3125C1145.64 68.3125 1144.83 68.2031 1144.09 67.9844C1143.35 67.7656 1142.69 67.4167 1142.09 66.9375C1141.51 66.4479 1141.01 65.8125 1140.59 65.0312C1140.18 64.25 1139.86 63.3021 1139.64 62.1875C1139.42 61.0729 1139.31 59.7708 1139.31 58.2812V54.8125C1139.31 52.9479 1139.48 51.3854 1139.81 50.125C1140.16 48.8646 1140.64 47.8542 1141.27 47.0938C1141.89 46.3229 1142.64 45.7708 1143.52 45.4375C1144.4 45.1042 1145.39 44.9375 1146.48 44.9375C1147.37 44.9375 1148.18 45.0469 1148.92 45.2656C1149.67 45.474 1150.34 45.8125 1150.92 46.2812C1151.51 46.7396 1152 47.3542 1152.41 48.125C1152.82 48.8854 1153.14 49.8177 1153.36 50.9219C1153.58 52.026 1153.69 53.3229 1153.69 54.8125ZM1150.78 58.75V54.3281C1150.78 53.3073 1150.72 52.4115 1150.59 51.6406C1150.48 50.8594 1150.31 50.1927 1150.08 49.6406C1149.85 49.0885 1149.56 48.6406 1149.2 48.2969C1148.86 47.9531 1148.46 47.7031 1148 47.5469C1147.55 47.3802 1147.05 47.2969 1146.48 47.2969C1145.8 47.2969 1145.19 47.4271 1144.66 47.6875C1144.12 47.9375 1143.68 48.3385 1143.31 48.8906C1142.96 49.4427 1142.69 50.1667 1142.5 51.0625C1142.31 51.9583 1142.22 53.0469 1142.22 54.3281V58.75C1142.22 59.7708 1142.28 60.6719 1142.39 61.4531C1142.52 62.2344 1142.7 62.9115 1142.94 63.4844C1143.18 64.0469 1143.47 64.5104 1143.81 64.875C1144.16 65.2396 1144.55 65.5104 1145 65.6875C1145.46 65.8542 1145.96 65.9375 1146.52 65.9375C1147.22 65.9375 1147.84 65.8021 1148.38 65.5312C1148.91 65.2604 1149.35 64.8385 1149.7 64.2656C1150.07 63.6823 1150.34 62.9375 1150.52 62.0312C1150.69 61.1146 1150.78 60.0208 1150.78 58.75ZM1172.31 65.625V68H1157.42V65.9219L1164.88 57.625C1165.79 56.6042 1166.5 55.7396 1167 55.0312C1167.51 54.3125 1167.86 53.6719 1168.06 53.1094C1168.27 52.5365 1168.38 51.9531 1168.38 51.3594C1168.38 50.6094 1168.22 49.9323 1167.91 49.3281C1167.6 48.7135 1167.16 48.224 1166.56 47.8594C1165.97 47.4948 1165.25 47.3125 1164.41 47.3125C1163.4 47.3125 1162.55 47.5104 1161.88 47.9062C1161.21 48.2917 1160.71 48.8333 1160.38 49.5312C1160.04 50.2292 1159.88 51.0312 1159.88 51.9375H1156.98C1156.98 50.6562 1157.27 49.4844 1157.83 48.4219C1158.39 47.3594 1159.22 46.5156 1160.33 45.8906C1161.43 45.2552 1162.79 44.9375 1164.41 44.9375C1165.84 44.9375 1167.07 45.1927 1168.09 45.7031C1169.11 46.2031 1169.9 46.9115 1170.44 47.8281C1170.99 48.7344 1171.27 49.7969 1171.27 51.0156C1171.27 51.6823 1171.15 52.3594 1170.92 53.0469C1170.7 53.724 1170.4 54.401 1170 55.0781C1169.61 55.7552 1169.16 56.4219 1168.64 57.0781C1168.13 57.7344 1167.58 58.3802 1167 59.0156L1160.91 65.625H1172.31ZM1190.31 65.625V68H1175.42V65.9219L1182.88 57.625C1183.79 56.6042 1184.5 55.7396 1185 55.0312C1185.51 54.3125 1185.86 53.6719 1186.06 53.1094C1186.27 52.5365 1186.38 51.9531 1186.38 51.3594C1186.38 50.6094 1186.22 49.9323 1185.91 49.3281C1185.6 48.7135 1185.16 48.224 1184.56 47.8594C1183.97 47.4948 1183.25 47.3125 1182.41 47.3125C1181.4 47.3125 1180.55 47.5104 1179.88 47.9062C1179.21 48.2917 1178.71 48.8333 1178.38 49.5312C1178.04 50.2292 1177.88 51.0312 1177.88 51.9375H1174.98C1174.98 50.6562 1175.27 49.4844 1175.83 48.4219C1176.39 47.3594 1177.22 46.5156 1178.33 45.8906C1179.43 45.2552 1180.79 44.9375 1182.41 44.9375C1183.84 44.9375 1185.07 45.1927 1186.09 45.7031C1187.11 46.2031 1187.9 46.9115 1188.44 47.8281C1188.99 48.7344 1189.27 49.7969 1189.27 51.0156C1189.27 51.6823 1189.15 52.3594 1188.92 53.0469C1188.7 53.724 1188.4 54.401 1188 55.0781C1187.61 55.7552 1187.16 56.4219 1186.64 57.0781C1186.13 57.7344 1185.58 58.3802 1185 59.0156L1178.91 65.625H1190.31Z" fill="black"/>
<line x1="0.994992" y1="98" x2="1191.99" y2="97.0058" stroke="#234D87" stroke-width="12"/>
</svg>
