<svg width="500" height="50" viewBox="0,0,500,50" style="overflow: visible; display: block;" xmlns="http://www.w3.org/2000/svg" xmlns:xlink="http://www.w3.org/1999/xlink"><g><rect x="0" y="18" width="56" height="10" fill="#b2182b"/><rect x="56" y="18" width="55" height="10" fill="#d6604d"/><rect x="111" y="18" width="56" height="10" fill="#f4a582"/><rect x="167" y="18" width="55" height="10" fill="#fddbc7"/><rect x="222" y="18" width="56" height="10" fill="#f7f7f7"/><rect x="278" y="18" width="55" height="10" fill="#d1e5f0"/><rect x="333" y="18" width="56" height="10" fill="#92c5de"/><rect x="389" y="18" width="55" height="10" fill="#4393c3"/><rect x="444" y="18" width="56" height="10" fill="#2166ac"/></g><g transform="translate(0,28)" fill="none" font-size="10" font-family="sans-serif" text-anchor="middle"><g class="tick" opacity="1" transform="translate(56.5,0)"><line stroke="currentColor" y2="6" y1="-10"/><text fill="currentColor" y="9" dy="0.71em">0.81</text></g><g class="tick" opacity="1" transform="translate(111.5,0)"><line stroke="currentColor" y2="6" y1="-10"/><text fill="currentColor" y="9" dy="0.71em">0.86</text></g><g class="tick" opacity="1" transform="translate(167.5,0)"><line stroke="currentColor" y2="6" y1="-10"/><text fill="currentColor" y="9" dy="0.71em">0.92</text></g><g class="tick" opacity="1" transform="translate(222.5,0)"><line stroke="currentColor" y2="6" y1="-10"/><text fill="currentColor" y="9" dy="0.71em">0.97</text></g><g class="tick" opacity="1" transform="translate(278.5,0)"><line stroke="currentColor" y2="6" y1="-10"/><text fill="currentColor" y="9" dy="0.71em">1.03</text></g><g class="tick" opacity="1" transform="translate(333.5,0)"><line stroke="currentColor" y2="6" y1="-10"/><text fill="currentColor" y="9" dy="0.71em">1.08</text></g><g class="tick" opacity="1" transform="translate(389.5,0)"><line stroke="currentColor" y2="6" y1="-10"/><text fill="currentColor" y="9" dy="0.71em">1.14</text></g><g class="tick" opacity="1" transform="translate(444.5,0)"><line stroke="currentColor" y2="6" y1="-10"/><text fill="currentColor" y="9" dy="0.71em">1.19</text></g><text x="0" y="-16" fill="currentColor" text-anchor="start" font-weight="bold" class="title">K-12 Teacher's Mean Salary Compared to State Mean</text></g></svg>